HIERARCHY
ROOT root
{
	OFFSET 0.000000 0.000000 0.000000
	CHANNELS 6 Xposition Yposition Zposition Zrotation Yrotation Xrotation
	JOINT lhip
	{
		OFFSET 0.058581 -0.082280 -0.017664
		CHANNELS 3 Zrotation Yrotation Xrotation
		JOINT lknee
		{
			OFFSET 0.043451 -0.386469 0.008037
			CHANNELS 3 Zrotation Yrotation Xrotation
			JOINT lankle
			{
				OFFSET -0.014790 -0.426874 -0.037428
				CHANNELS 3 Zrotation Yrotation Xrotation
				JOINT ltoe
				{
					OFFSET 0.041054 -0.060286 0.122042
					CHANNELS 3 Zrotation Yrotation Xrotation
					End Site
					{
						OFFSET 0.000000 0.000000 0.000000
					}
				}
			}
		}
	}
	JOINT rhip
	{
		OFFSET -0.060310 -0.090513 -0.013543
		CHANNELS 3 Zrotation Yrotation Xrotation
		JOINT rknee
		{
			OFFSET -0.043257 -0.383688 -0.004843
			CHANNELS 3 Zrotation Yrotation Xrotation
			JOINT rankle
			{
				OFFSET 0.019056 -0.420046 -0.034562
				CHANNELS 3 Zrotation Yrotation Xrotation
				JOINT rtoe
				{
					OFFSET -0.034840 -0.062106 0.130323
					CHANNELS 3 Zrotation Yrotation Xrotation
					End Site
					{
						OFFSET 0.000000 0.000000 0.000000
					}
				}
			}
		}
	}
	JOINT lowerback
	{
		OFFSET 0.004439 0.124404 -0.038385
		CHANNELS 3 Zrotation Yrotation Xrotation
		JOINT upperback
		{
			OFFSET 0.004488 0.137956 0.026820
			CHANNELS 3 Zrotation Yrotation Xrotation
			JOINT chest
			{
				OFFSET -0.002265 0.056032 0.002855
				CHANNELS 3 Zrotation Yrotation Xrotation
				JOINT lowerneck
				{
					OFFSET -0.013390 0.211636 -0.033468
					CHANNELS 3 Zrotation Yrotation Xrotation
					JOINT upperneck
					{
						OFFSET 0.010113 0.088937 0.050410
						CHANNELS 3 Zrotation Yrotation Xrotation
						End Site
						{
							OFFSET 0.000000 0.000000 0.000000
						}
					}
				}
				JOINT lclavicle
				{
					OFFSET 0.071702 0.114000 -0.018898
					CHANNELS 3 Zrotation Yrotation Xrotation
					JOINT lshoulder
					{
						OFFSET 0.122921 0.045205 -0.019046
						CHANNELS 3 Zrotation Yrotation Xrotation
						JOINT lelbow
						{
							OFFSET 0.255332 -0.015649 -0.022946
							CHANNELS 3 Zrotation Yrotation Xrotation
							JOINT lwrist
							{
								OFFSET 0.265709 0.012698 -0.007375
								CHANNELS 3 Zrotation Yrotation Xrotation
								End Site
								{
									OFFSET 0.000000 0.000000 0.000000
								}
							}
						}
					}
				}
				JOINT rclavicle
				{
					OFFSET -0.082954 0.112472 -0.023707
					CHANNELS 3 Zrotation Yrotation Xrotation
					JOINT rshoulder
					{
						OFFSET -0.113228 0.046853 -0.008472
						CHANNELS 3 Zrotation Yrotation Xrotation
						JOINT relbow
						{
							OFFSET -0.260127 -0.014369 -0.031269
							CHANNELS 3 Zrotation Yrotation Xrotation
							JOINT rwrist
							{
								OFFSET -0.269108 0.006794 -0.006027
								CHANNELS 3 Zrotation Yrotation Xrotation
								End Site
								{
									OFFSET 0.000000 0.000000 0.000000
								}
							}
						}
					}
				}
			}
		}
	}
}
MOTION
Frames: 13
Frame Time: 0.033333
1.151449 0.169246 1.122696 -86.245733 2.525642 86.435997 -0.096296 -0.225723 7.600421 -2.588523 -15.999110 0.380939 7.582919 8.024122 -17.522312 0.000000 -0.000000 0.000000 4.047397 -2.311859 3.339549 4.202539 1.805439 6.907925 1.345027 -1.854349 -12.856511 0.000000 -0.000000 0.000000 -2.227099 2.102909 5.298598 1.134158 -2.347171 3.324864 1.611839 -1.257683 3.101298 2.685429 5.001450 13.310630 4.682682 4.001773 3.509109 -23.669288 2.826870 4.734179 -66.228898 -7.393525 7.716970 12.156974 -24.076393 4.217248 -2.804475 -0.650769 -9.643637 20.852704 -3.440356 5.400582 66.083407 1.290600 8.367181 -16.884449 25.827391 -4.765864 9.355471 0.154178 -14.212273 
1.151376 0.169224 1.122753 -86.230271 2.516243 86.439535 -0.119399 -0.310050 7.584429 -2.581241 -15.905046 0.384918 7.503105 8.061111 -17.607425 0.000000 -0.000000 0.000000 4.058929 -2.173528 3.390633 4.176451 1.707601 6.861383 1.569357 -2.006451 -12.972541 0.000000 -0.000000 0.000000 -2.241256 2.086634 5.290910 1.185412 -2.296696 3.292574 1.590099 -1.310608 3.181347 2.613305 4.248253 12.160297 4.091580 3.009877 3.510135 -23.679381 2.970125 4.631811 -66.272536 -7.375874 7.839771 12.078684 -24.006265 4.455422 -2.994423 -0.869752 -9.813888 20.691205 -3.524374 5.198898 66.304989 1.180249 8.498787 -16.957043 25.678815 -4.554224 9.363258 0.179342 -14.261235 
1.151362 0.169181 1.122812 -86.245226 2.490970 86.485448 -0.158912 -0.351723 7.538029 -2.595093 -15.958509 0.407933 7.477095 8.133960 -17.525068 0.000000 -0.000000 0.000000 4.051710 -2.023365 3.374808 4.195286 1.758185 6.779246 1.499135 -2.123453 -12.780306 0.000000 -0.000000 0.000000 -2.250814 2.076724 5.246194 1.214900 -2.298116 3.289110 1.577128 -1.332423 3.159395 2.494026 3.399599 11.113342 3.548900 2.096772 3.352078 -23.852228 3.028232 4.587748 -66.143573 -7.203256 7.897363 12.129575 -24.073394 4.615957 -3.047573 -0.838889 -9.834993 20.706042 -3.489904 5.187192 66.308350 1.099503 8.530582 -17.017051 25.654376 -4.569257 9.286188 0.096041 -14.168896 
1.151546 0.169434 1.122848 -86.333518 2.490484 86.484814 -0.172870 -0.345905 7.479921 -2.562958 -15.876511 0.477068 7.413720 8.137509 -17.606854 0.000000 -0.000000 0.000000 4.093788 -1.998262 3.330999 4.134911 1.886597 6.877701 1.579789 -2.156559 -12.824489 0.000000 -0.000000 0.000000 -2.272363 2.109782 5.261264 1.270088 -2.267053 3.275167 1.587854 -1.335496 3.173671 2.482503 2.370074 9.666895 2.698159 0.968904 3.387146 -24.129551 3.146112 4.506319 -65.968196 -7.089449 7.860218 12.167036 -24.120271 4.447897 -3.130738 -0.871220 -9.653439 20.751339 -3.484621 5.072886 66.234706 1.016400 8.552228 -17.011619 25.569627 -4.742865 9.165411 0.136303 -13.979045 
1.151691 0.169440 1.122849 -86.334536 2.435324 86.544669 -0.221389 -0.365952 7.355240 -2.597070 -15.894365 0.555855 7.383955 8.192756 -17.623246 0.000000 -0.000000 0.000000 4.002834 -2.007362 3.232234 4.194946 1.902813 6.978446 1.660370 -2.339511 -13.078368 0.000000 -0.000000 0.000000 -2.276905 2.126444 5.237920 1.291069 -2.279893 3.176828 1.559419 -1.374655 3.221497 2.422810 1.794272 8.842395 2.244820 0.277819 3.344296 -24.232268 3.252800 4.431783 -65.916985 -7.042792 7.881346 12.093176 -23.962525 4.485697 -2.996974 -1.033807 -9.804986 20.769336 -3.508289 4.955840 66.168126 0.950484 8.611938 -16.930118 25.481990 -4.712078 9.001634 0.148373 -13.909177 
1.151507 0.169517 1.122871 -86.289933 2.455801 86.531986 -0.162364 -0.330070 7.341808 -2.648724 -15.871432 0.602102 7.320459 8.141520 -17.694776 0.000000 -0.000000 0.000000 4.008147 -1.994017 3.297507 4.257566 1.978206 6.930015 1.636775 -2.536050 -13.054914 0.000000 -0.000000 0.000000 -2.244791 2.093607 5.227717 1.333381 -2.311425 3.179799 1.536292 -1.386303 3.228128 2.364671 0.977400 7.734941 1.635834 -0.571462 3.328096 -24.351453 3.325051 4.347635 -65.806416 -6.983033 7.917515 11.988870 -23.848224 4.746138 -2.924853 -1.142137 -9.988822 20.773249 -3.458390 4.881871 66.175913 0.828517 8.678363 -16.991017 25.439907 -4.749668 8.805971 0.231301 -13.930562 
1.151645 0.169643 1.122919 -86.271387 2.439556 86.558155 -0.165656 -0.337201 7.242836 -2.661623 -15.882395 0.700932 7.275033 8.157567 -17.661067 0.000000 -0.000000 0.000000 4.046448 -2.016952 3.341149 4.193238 2.125257 6.830410 1.643026 -2.511193 -12.746300 0.000000 -0.000000 0.000000 -2.255086 2.111642 5.162867 1.389744 -2.336949 3.218185 1.551945 -1.427536 3.273262 2.430309 0.166203 6.546282 0.899170 -1.395531 3.464725 -24.646802 3.452631 4.157982 -65.592175 -6.950907 7.916751 11.866941 -23.682486 4.690188 -2.672484 -1.091212 -9.464214 20.861440 -3.482553 4.745256 66.008699 0.781185 8.739334 -16.959195 25.393894 -4.906827 8.621190 0.206111 -13.659492 
1.151816 0.169835 1.122923 -86.267168 2.392057 86.533129 -0.192741 -0.326753 7.201221 -2.679475 -15.845932 0.742198 7.194427 8.111301 -17.789974 0.000000 -0.000000 0.000000 3.966566 -2.010757 3.352274 4.255783 2.148913 6.875259 1.730751 -2.810392 -13.023674 0.000000 -0.000000 0.000000 -2.285772 2.118190 5.165208 1.440545 -2.345978 3.215663 1.534148 -1.486291 3.336762 2.504370 -0.554686 5.371835 0.151002 -2.233604 3.603853 -24.786825 3.548167 4.103786 -65.424462 -6.887243 7.955453 11.837296 -23.672987 4.746757 -2.745669 -1.373854 -9.717936 20.996765 -3.442990 4.603454 65.798888 0.796606 8.840150 -16.887894 25.276194 -5.033009 8.474250 0.255356 -13.559333 
1.152324 0.170016 1.122804 -86.349607 2.340697 86.579675 -0.239640 -0.319600 6.991239 -2.687914 -15.726955 0.907805 7.168194 8.036763 -17.600552 0.000000 -0.000000 0.000000 3.936797 -2.040092 3.265061 4.202114 2.357462 7.026541 1.648562 -2.822933 -12.843453 0.000000 -0.000000 0.000000 -2.253053 2.164099 5.227582 1.489969 -2.329057 3.176126 1.504179 -1.538790 3.353891 2.605737 -1.314670 4.152627 -0.640943 -2.971362 3.817647 -25.131770 3.658426 3.913611 -65.171079 -6.815053 7.995598 11.849249 -23.649451 4.666025 -2.538353 -1.443634 -9.429453 21.222783 -3.445737 4.491937 65.468501 0.824492 8.956735 -16.908149 25.247041 -5.296725 8.312561 0.343995 -13.233101 
1.152723 0.170311 1.122711 -86.339089 2.284228 86.569271 -0.259363 -0.290547 6.869575 -2.713576 -15.746333 1.034699 7.005001 8.068573 -17.767290 0.000000 -0.000000 0.000000 3.905456 -1.942085 3.299135 4.212606 2.532145 7.065148 1.838617 -3.018962 -12.863939 0.000000 -0.000000 0.000000 -2.299458 2.168683 5.253593 1.574553 -2.350320 3.166070 1.520131 -1.617057 3.458638 2.785207 -2.285362 2.491172 -1.809627 -4.017220 3.978220 -25.342458 3.785954 3.720028 -64.982459 -6.797939 8.064379 11.697640 -23.550683 4.792087 -2.455809 -1.591486 -9.571389 21.377343 -3.431449 4.301472 65.192834 0.848904 9.137793 -16.891374 25.171115 -5.526187 8.056520 0.378972 -13.091749 
1.152884 0.170452 1.122632 -86.381786 2.282143 86.570256 -0.256840 -0.277206 6.810863 -2.732704 -15.749546 1.125542 7.058007 8.080744 -17.702360 0.000000 -0.000000 0.000000 3.896147 -1.958583 3.281926 4.236872 2.554320 7.105761 1.774127 -3.032242 -12.834706 0.000000 -0.000000 0.000000 -2.287595 2.158902 5.296770 1.550791 -2.356064 3.108846 1.515679 -1.583680 3.344956 2.652189 -2.113427 2.769053 -1.935481 -3.779656 4.305356 -25.309518 3.762130 3.896313 -64.993862 -6.748271 8.046631 11.726545 -23.629605 4.795968 -2.385275 -1.602130 -9.613589 21.393495 -3.396993 4.479673 65.167315 0.936509 9.095585 -16.870656 25.142650 -5.513413 8.036505 0.353390 -13.054997 
1.153236 0.170508 1.122711 -86.443810 2.268907 86.652821 -0.293294 -0.342771 6.636492 -2.744089 -15.738556 1.160027 6.972896 8.148075 -17.921824 0.000000 -0.000000 0.000000 3.883942 -1.979808 3.083743 4.211034 2.723247 7.304500 1.896997 -3.133322 -13.216479 0.000000 -0.000000 0.000000 -2.267411 2.195426 5.257776 1.565322 -2.361504 3.040415 1.435104 -1.622160 3.265564 2.713761 -1.972641 2.471331 -1.817096 -3.924560 5.175240 -25.255536 3.774091 4.115474 -64.900844 -6.600368 8.191561 11.795709 -23.944649 4.897889 -2.672343 -1.577803 -9.880060 21.605086 -3.367818 4.653098 65.016239 1.044534 9.087300 -16.949801 25.154557 -5.635773 8.168382 0.433952 -13.145739 
1.153261 0.170646 1.122621 -86.444245 2.290266 86.553253 -0.267082 -0.341333 6.694976 -2.719771 -15.648832 1.261896 6.967157 8.163050 -17.762132 0.000000 -0.000000 0.000000 3.924771 -1.936557 3.175932 4.211631 2.734866 7.282900 1.821485 -3.143568 -12.999684 0.000000 -0.000000 0.000000 -2.272477 2.180199 5.263637 1.568913 -2.362254 3.067921 1.406029 -1.644811 3.338180 2.732931 -1.660776 2.119622 -1.652305 -3.991999 6.015201 -25.231293 3.733994 4.099727 -64.946459 -6.785185 8.231654 11.828575 -23.726457 4.695105 -2.401551 -1.684445 -9.639204 21.692844 -3.379017 4.542287 64.924233 1.177179 9.180396 -16.831457 25.048020 -5.646987 8.073578 0.511787 -13.139223 
